<?xml version="1.0" encoding="UTF-8" standalone="no"?>
<svg
   xmlns:dc="http://purl.org/dc/elements/1.1/"
   xmlns:cc="http://creativecommons.org/ns#"
   xmlns:rdf="http://www.w3.org/1999/02/22-rdf-syntax-ns#"
   xmlns:svg="http://www.w3.org/2000/svg"
   xmlns="http://www.w3.org/2000/svg"
   xmlns:xlink="http://www.w3.org/1999/xlink"
   xmlns:sodipodi="http://sodipodi.sourceforge.net/DTD/sodipodi-0.dtd"
   xmlns:inkscape="http://www.inkscape.org/namespaces/inkscape"
   width="640"
   height="640"
   viewBox="0 0 169.33333 169.33332"
   version="1.1"
   id="svg8"
   inkscape:version="1.0.2 (e86c870879, 2021-01-15)"
   sodipodi:docname="Vision2033_Wortbildmarke_farbig_geschützt_leer.svg">
  <defs
     id="defs2">
    <linearGradient
       xlink:href="#linearGradient1125"
       id="linearGradient1127"
       x1="-683.55151"
       y1="666.0354"
       x2="-950.2287"
       y2="100.21283"
       gradientUnits="userSpaceOnUse"
       gradientTransform="translate(1044.955,-103.99029)" />
    <linearGradient
       id="linearGradient1125">
      <stop
         style="stop-color:#478e96;stop-opacity:1"
         offset="0"
         id="stop1121" />
      <stop
         style="stop-color:#223168;stop-opacity:1"
         offset="1"
         id="stop1123" />
    </linearGradient>
    <linearGradient
       xlink:href="#linearGradient1117"
       id="linearGradient1119"
       x1="-450.80478"
       y1="544.36218"
       x2="-165.49663"
       y2="-0.84750015"
       gradientUnits="userSpaceOnUse"
       gradientTransform="translate(725.78048,1.3437493)" />
    <linearGradient
       id="linearGradient1117">
      <stop
         style="stop-color:#478e96;stop-opacity:1"
         offset="0"
         id="stop1113" />
      <stop
         style="stop-color:#74fdce;stop-opacity:1"
         offset="1"
         id="stop1115" />
    </linearGradient>
    <linearGradient
       xlink:href="#linearGradient1125"
       id="linearGradient1127-6"
       x1="-683.55151"
       y1="666.0354"
       x2="-950.2287"
       y2="100.21283"
       gradientUnits="userSpaceOnUse"
       gradientTransform="translate(1044.955,-103.99029)" />
    <linearGradient
       xlink:href="#linearGradient1117"
       id="linearGradient1119-3"
       x1="-450.80478"
       y1="544.36218"
       x2="-165.49663"
       y2="-0.84750015"
       gradientUnits="userSpaceOnUse"
       gradientTransform="translate(725.78048,1.3437493)" />
  </defs>
  <sodipodi:namedview
     id="base"
     pagecolor="#ffffff"
     bordercolor="#666666"
     borderopacity="1.0"
     inkscape:pageopacity="0.0"
     inkscape:pageshadow="2"
     inkscape:zoom="0.49497476"
     inkscape:cx="778.06067"
     inkscape:cy="573.40597"
     inkscape:document-units="mm"
     inkscape:current-layer="layer1"
     inkscape:document-rotation="0"
     showgrid="false"
     fit-margin-top="0"
     fit-margin-left="0"
     fit-margin-right="0"
     fit-margin-bottom="0"
     inkscape:window-width="1362"
     inkscape:window-height="724"
     inkscape:window-x="0"
     inkscape:window-y="20"
     inkscape:window-maximized="1"
     units="px" />
  <metadata
     id="metadata5">
    <rdf:RDF>
      <cc:Work
         rdf:about="">
        <dc:format>image/svg+xml</dc:format>
        <dc:type
           rdf:resource="http://purl.org/dc/dcmitype/StillImage" />
        <dc:title />
      </cc:Work>
    </rdf:RDF>
  </metadata>
  <g
     inkscape:label="Layer 1"
     inkscape:groupmode="layer"
     id="layer1"
     transform="translate(557.70142,411.00311)">
    <path
       d="m -524.23519,-313.63031 q 1.23862,0 2.04641,-0.0808 v 0.53853 q -0.67316,0.24234 -1.3194,1.02321 -0.64623,0.78087 -1.15784,2.18105 l -5.68149,15.37503 q -0.29619,-0.0269 -0.94243,-0.0269 -0.61931,0 -0.9155,0.0269 l -6.86625,-16.85599 q -0.35005,-0.88858 -0.8078,-1.29247 -0.45775,-0.4039 -0.88857,-0.43083 v -0.53853 q 1.61559,0.0808 4.09282,0.0808 2.77343,0 4.09283,-0.0808 v 0.53853 q -1.02321,0.0539 -1.45403,0.24234 -0.43082,0.18849 -0.43082,0.75394 0,0.45775 0.32311,1.26555 l 4.73907,12.06307 3.31196,-8.9396 q 0.75394,-2.07334 0.75394,-3.28503 0,-1.07706 -0.59238,-1.56174 -0.56546,-0.48467 -1.66945,-0.53853 v -0.53853 q 1.83101,0.0808 3.36582,0.0808 z"
       style="font-style:normal;font-variant:normal;font-weight:bold;font-stretch:normal;font-size:26.9265px;line-height:1.25;font-family:'Playfair Display';-inkscape-font-specification:'Playfair Display Bold';letter-spacing:0px;word-spacing:0px;fill:#223168;fill-opacity:1;stroke:none;stroke-width:0.786759"
       id="path884" />
    <path
       d="m -519.09228,-315.51516 q 1.13091,0 1.77714,0.56545 0.67317,0.53853 0.67317,1.50789 0,0.96935 -0.67317,1.53481 -0.64623,0.53853 -1.77714,0.53853 -1.13092,0 -1.80408,-0.53853 -0.64624,-0.56546 -0.64624,-1.53481 0,-0.96936 0.64624,-1.50789 0.67316,-0.56545 1.80408,-0.56545 z m 2.10026,18.36387 q 0,1.10399 0.37697,1.53481 0.4039,0.4039 1.34633,0.4039 v 0.56545 q -2.69265,-0.1077 -3.58123,-0.1077 -0.83472,0 -3.74278,0.1077 v -0.56545 q 0.96935,0 1.34633,-0.4039 0.37697,-0.43082 0.37697,-1.53481 v -8.48185 q 0,-1.23862 -0.37697,-1.80407 -0.37698,-0.56546 -1.34633,-0.56546 v -0.56546 q 0.86165,0.0808 1.66944,0.0808 2.39646,0 3.93127,-0.37697 z"
       style="font-style:normal;font-variant:normal;font-weight:bold;font-stretch:normal;font-size:26.9265px;line-height:1.25;font-family:'Playfair Display';-inkscape-font-specification:'Playfair Display Bold';letter-spacing:0px;word-spacing:0px;fill:#223168;fill-opacity:1;stroke:none;stroke-width:0.786759"
       id="path886" />
    <path
       d="m -508.77947,-308.9451 q 1.0232,0 1.88485,0.26927 0.86165,0.24234 1.3194,0.56545 0.26927,0.18849 0.48468,0.18849 0.24234,0 0.40389,-0.24234 0.18849,-0.26926 0.24234,-0.75394 h 0.56546 q -0.10771,1.37325 -0.10771,4.73906 h -0.56545 q -0.24234,-1.77715 -1.07706,-2.96191 -0.8078,-1.21169 -2.36953,-1.21169 -0.8078,0 -1.34633,0.45775 -0.5116,0.45775 -0.5116,1.26554 0,0.9155 0.61931,1.58867 0.61931,0.64623 1.9387,1.58866 l 0.78087,0.56546 q 1.64252,1.23861 2.42339,2.20797 0.78087,0.96935 0.78087,2.42338 0,1.18477 -0.70009,2.10027 -0.67317,0.9155 -1.831,1.40018 -1.15784,0.48468 -2.55802,0.48468 -1.48096,0 -2.53109,-0.56546 -0.86165,-0.43082 -1.23862,-0.56546 -0.26927,-0.0808 -0.48468,0.18849 -0.18848,0.24234 -0.29619,0.75394 h -0.56546 q 0.10771,-1.53481 0.10771,-5.3853 h 0.56546 q 0.53853,4.95448 3.63507,4.95448 0.78087,0 1.3194,-0.45775 0.56546,-0.48468 0.56546,-1.45404 0,-0.75394 -0.35005,-1.34632 -0.32311,-0.59238 -0.83472,-1.05013 -0.5116,-0.45775 -1.53481,-1.26555 -1.21169,-0.96935 -1.85793,-1.56174 -0.61931,-0.59238 -1.07706,-1.40017 -0.43082,-0.8078 -0.43082,-1.80408 0,-1.7233 1.34632,-2.71958 1.34633,-0.99628 3.28504,-0.99628 z"
       style="font-style:normal;font-variant:normal;font-weight:bold;font-stretch:normal;font-size:26.9265px;line-height:1.25;font-family:'Playfair Display';-inkscape-font-specification:'Playfair Display Bold';letter-spacing:0px;word-spacing:0px;fill:#223168;fill-opacity:1;stroke:none;stroke-width:0.786759"
       id="path888" />
    <path
       d="m -498.17043,-315.51516 q 1.13091,0 1.77714,0.56545 0.67317,0.53853 0.67317,1.50789 0,0.96935 -0.67317,1.53481 -0.64623,0.53853 -1.77714,0.53853 -1.13092,0 -1.80408,-0.53853 -0.64624,-0.56546 -0.64624,-1.53481 0,-0.96936 0.64624,-1.50789 0.67316,-0.56545 1.80408,-0.56545 z m 2.10026,18.36387 q 0,1.10399 0.37697,1.53481 0.4039,0.4039 1.34633,0.4039 v 0.56545 q -2.69265,-0.1077 -3.58123,-0.1077 -0.83472,0 -3.74278,0.1077 v -0.56545 q 0.96935,0 1.34633,-0.4039 0.37697,-0.43082 0.37697,-1.53481 v -8.48185 q 0,-1.23862 -0.37697,-1.80407 -0.37698,-0.56546 -1.34633,-0.56546 v -0.56546 q 0.86165,0.0808 1.66944,0.0808 2.39646,0 3.93127,-0.37697 z"
       style="font-style:normal;font-variant:normal;font-weight:bold;font-stretch:normal;font-size:26.9265px;line-height:1.25;font-family:'Playfair Display';-inkscape-font-specification:'Playfair Display Bold';letter-spacing:0px;word-spacing:0px;fill:#223168;fill-opacity:1;stroke:none;stroke-width:0.786759"
       id="path890" />
    <path
       d="m -486.24203,-308.9451 q 3.09655,0 4.84677,1.77715 1.75022,1.75022 1.75022,5.57379 0,3.82356 -1.75022,5.57378 -1.75022,1.75023 -4.84677,1.75023 -3.06962,0 -4.84677,-1.75023 -1.75022,-1.75022 -1.75022,-5.57378 0,-3.82357 1.75022,-5.57379 1.77715,-1.77715 4.84677,-1.77715 z m 0,0.53853 q -1.15784,0 -1.85793,1.69637 -0.67316,1.66945 -0.67316,5.11604 0,3.44659 0.67316,5.11603 0.70009,1.66945 1.85793,1.66945 1.18476,0 1.85793,-1.64252 0.67316,-1.66944 0.67316,-5.14296 0,-3.47352 -0.70009,-5.14296 -0.67316,-1.66945 -1.831,-1.66945 z"
       style="font-style:normal;font-variant:normal;font-weight:bold;font-stretch:normal;font-size:26.9265px;line-height:1.25;font-family:'Playfair Display';-inkscape-font-specification:'Playfair Display Bold';letter-spacing:0px;word-spacing:0px;fill:#223168;fill-opacity:1;stroke:none;stroke-width:0.786759"
       id="path892" />
    <path
       d="m -467.95897,-308.9451 q 2.04641,0 2.96191,1.05014 0.45775,0.5116 0.64624,1.3194 0.18848,0.80779 0.18848,2.18104 v 7.24323 q 0,1.10399 0.37697,1.53481 0.4039,0.4039 1.34633,0.4039 v 0.56545 q -2.69265,-0.1077 -3.5543,-0.1077 -0.80779,0 -3.50044,0.1077 v -0.56545 q 0.80779,0 1.13091,-0.4039 0.32312,-0.43082 0.32312,-1.53481 v -8.37414 q 0,-1.10399 -0.37697,-1.66944 -0.35005,-0.56546 -1.29248,-0.56546 -1.10398,0 -1.88485,0.9155 -0.78087,0.88857 -0.78087,2.20797 v 7.48557 q 0,1.10399 0.32312,1.53481 0.32312,0.4039 1.13091,0.4039 v 0.56545 q -2.47724,-0.1077 -3.33889,-0.1077 -0.80779,0 -3.71585,0.1077 v -0.56545 q 0.96935,0 1.34632,-0.4039 0.37697,-0.43082 0.37697,-1.53481 v -8.48185 q 0,-1.23862 -0.37697,-1.80407 -0.37697,-0.56546 -1.34632,-0.56546 v -0.56546 q 0.86165,0.0808 1.66944,0.0808 2.39646,0 3.93127,-0.37697 v 2.42339 q 1.21169,-2.50417 4.41595,-2.50417 z"
       style="font-style:normal;font-variant:normal;font-weight:bold;font-stretch:normal;font-size:26.9265px;line-height:1.25;font-family:'Playfair Display';-inkscape-font-specification:'Playfair Display Bold';letter-spacing:0px;word-spacing:0px;fill:#223168;fill-opacity:1;stroke:none;stroke-width:0.786759"
       id="path894" />
    <path
       d="m -454.68425,-308.9451 q 2.07334,0 3.28504,0.9155 1.21169,0.88858 1.21169,2.50417 0,1.10399 -0.64624,2.04641 -0.61931,0.94243 -1.48096,1.66945 -0.86164,0.72701 -2.36953,1.80407 -1.93871,1.34633 -2.71957,2.15412 h 5.81612 q 0.72702,0 1.07706,-0.1077 0.37697,-0.10771 0.5116,-0.35005 0.13464,-0.24234 0.21542,-0.75394 h 0.56545 q 0,3.17733 0.10771,4.55058 -0.59238,-0.13464 -4.01205,-0.13464 h -7.83561 v -0.5116 q 0.35004,-0.37697 1.37325,-1.29247 1.56174,-1.42711 2.58494,-2.53109 1.05014,-1.13091 1.80408,-2.58495 0.78087,-1.48095 0.78087,-3.06962 0,-1.4271 -0.64624,-2.07334 -0.61931,-0.67316 -1.85793,-0.67316 -1.13091,0 -2.01948,0.53853 -0.86165,0.5116 -1.58867,1.53481 l -0.45775,-0.26926 q 1.99256,-3.36582 6.3008,-3.36582 z"
       style="font-style:normal;font-variant:normal;font-weight:bold;font-stretch:normal;font-size:26.9265px;line-height:1.25;font-family:'Playfair Display';-inkscape-font-specification:'Playfair Display Bold';letter-spacing:0px;word-spacing:0px;fill:#223168;fill-opacity:1;stroke:none;stroke-width:0.786759"
       id="path896" />
    <path
       d="m -439.17462,-308.9451 q 2.12719,0 3.79663,0.88858 1.66945,0.88857 2.58495,2.50416 0.94242,1.61559 0.94242,3.71586 0,2.15412 -0.96935,3.87742 -0.94243,1.72329 -2.69265,2.71957 -1.7233,0.96936 -3.95819,0.96936 -2.10027,0 -3.76971,-0.88858 -1.66945,-0.88857 -2.61188,-2.50416 -0.94242,-1.61559 -0.94242,-3.74279 0,-2.12719 0.94242,-3.85049 0.96936,-1.72329 2.69265,-2.69265 1.7233,-0.99628 3.98513,-0.99628 z m -0.24234,0.48468 q -0.96936,0 -1.7233,0.83472 -0.75394,0.83472 -1.18476,2.42339 -0.4039,1.56173 -0.4039,3.71585 0,3.41967 0.96935,5.08911 0.99628,1.64252 2.53109,1.64252 0.96936,0 1.69637,-0.83472 0.75395,-0.86165 1.18477,-2.42339 0.43082,-1.58866 0.43082,-3.74278 0,-3.41967 -0.99628,-5.06218 -0.96935,-1.64252 -2.50416,-1.64252 z"
       style="font-style:normal;font-variant:normal;font-weight:bold;font-stretch:normal;font-size:26.9265px;line-height:1.25;font-family:'Playfair Display';-inkscape-font-specification:'Playfair Display Bold';letter-spacing:0px;word-spacing:0px;fill:#223168;fill-opacity:1;stroke:none;stroke-width:0.786759"
       id="path898" />
    <path
       d="m -424.01504,-308.9451 q 2.01948,0 3.31196,0.83472 1.29247,0.83473 1.29247,2.26183 0,1.53481 -1.48096,2.7465 -1.48096,1.2117 -3.98512,1.69637 2.82728,-0.1077 4.63136,0.99628 1.80407,1.07706 1.80407,3.09655 0,1.96564 -1.69637,3.50045 -1.69637,1.56173 -4.36209,2.39645 -2.6388,0.83473 -5.35837,0.83473 v -0.53853 q 1.77715,-0.0539 3.47352,-0.8078 1.72329,-0.72701 2.82728,-2.10027 1.10398,-1.37325 1.10398,-3.2581 0,-1.58867 -0.78086,-2.61187 -0.75395,-1.02321 -2.04642,-1.13092 -0.37697,0.18849 -0.75394,0.32312 -0.35004,0.10771 -0.61931,0.10771 -0.5116,0 -0.5116,-0.37697 0,-0.29619 0.24234,-0.43083 0.24233,-0.16156 0.6193,-0.16156 0.16156,0 0.43083,0.0539 0.29619,0.0269 0.5116,0.0539 2.07334,-1.45403 2.07334,-3.60815 0,-1.21169 -0.61931,-1.77715 -0.61931,-0.59238 -1.77715,-0.59238 -1.07706,0 -1.99256,0.53853 -0.88857,0.53853 -1.50788,1.56173 l -0.48468,-0.24233 q 0.83472,-1.53481 2.15412,-2.45032 1.34633,-0.9155 3.50045,-0.9155 z"
       style="font-style:normal;font-variant:normal;font-weight:bold;font-stretch:normal;font-size:26.9265px;line-height:1.25;font-family:'Playfair Display';-inkscape-font-specification:'Playfair Display Bold';letter-spacing:0px;word-spacing:0px;fill:#223168;fill-opacity:1;stroke:none;stroke-width:0.786759"
       id="path900" />
    <path
       d="m -410.87494,-308.9451 q 2.01949,0 3.31196,0.83472 1.29248,0.83473 1.29248,2.26183 0,1.53481 -1.48096,2.7465 -1.48096,1.2117 -3.98512,1.69637 2.82728,-0.1077 4.63135,0.99628 1.80408,1.07706 1.80408,3.09655 0,1.96564 -1.69637,3.50045 -1.69637,1.56173 -4.36209,2.39645 -2.6388,0.83473 -5.35838,0.83473 v -0.53853 q 1.77715,-0.0539 3.47352,-0.8078 1.7233,-0.72701 2.82728,-2.10027 1.10399,-1.37325 1.10399,-3.2581 0,-1.58867 -0.78087,-2.61187 -0.75394,-1.02321 -2.04641,-1.13092 -0.37697,0.18849 -0.75394,0.32312 -0.35005,0.10771 -0.61931,0.10771 -0.51161,0 -0.51161,-0.37697 0,-0.29619 0.24234,-0.43083 0.24234,-0.16156 0.61931,-0.16156 0.16156,0 0.43082,0.0539 0.2962,0.0269 0.51161,0.0539 2.07334,-1.45403 2.07334,-3.60815 0,-1.21169 -0.61931,-1.77715 -0.61931,-0.59238 -1.77715,-0.59238 -1.07706,0 -1.99256,0.53853 -0.88858,0.53853 -1.50788,1.56173 l -0.48468,-0.24233 q 0.83472,-1.53481 2.15412,-2.45032 1.34632,-0.9155 3.50044,-0.9155 z"
       style="font-style:normal;font-variant:normal;font-weight:bold;font-stretch:normal;font-size:26.9265px;line-height:1.25;font-family:'Playfair Display';-inkscape-font-specification:'Playfair Display Bold';letter-spacing:0px;word-spacing:0px;fill:#223168;fill-opacity:1;stroke:none;stroke-width:0.786759"
       id="path902" />
    <g
       id="g841"
       transform="matrix(0.16809601,0,0,0.16809601,-493.20628,-362.09165)">
      <g
         id="g1176"
         transform="matrix(0.375,0,0,0.375,-1.85347e-6,6.7134923e-7)">
        <path
           id="path1845-3-6-0"
           style="fill:url(#linearGradient1127);fill-opacity:1;stroke:none;stroke-width:0;stroke-linecap:round;stroke-miterlimit:4;stroke-dasharray:none"
           d="M 9.7203913,-2.3539814e-7 48.505541,80 l 38.78516,80 38.783199,80 38.78516,80 38.78515,80 38.78516,80 38.78515,80 38.78516,80 38.78516,-80 L 397.57,480 358.78484,400 319.99968,320 281.21452,240 242.42937,160 203.64421,80 164.85906,-2.3539808e-7 H 87.290701 Z" />
        <path
           id="path1845-3-1-8-62-2"
           style="fill:url(#linearGradient1119);fill-opacity:1;stroke:none;stroke-width:0;stroke-linecap:round;stroke-miterlimit:4;stroke-dasharray:none;stroke-opacity:1"
           d="M 475.13963,-3.5805292e-6 436.35448,79.999996 397.56932,160 l -38.78515,80 -38.78516,80 -38.78516,80 -38.78515,80 38.78515,80 38.78516,80 38.78516,-80 38.78515,-80 38.78516,-80 38.78515,-80 38.78516,-80 38.78516,-80 h -0.002 L 513.92475,79.999996 552.70991,160 591.49311,79.999996 630.27827,-3.5805292e-6 h -77.56836 z" />
        <g
           id="g2870"
           transform="matrix(1.5513996,0,0,1.5513996,-990.08596,-143.64959)">
          <path
             style="opacity:1;fill:#223168;fill-opacity:1;stroke:none;stroke-width:0;stroke-linecap:round;stroke-miterlimit:4;stroke-dasharray:none"
             id="path1845-3"
             transform="matrix(0.90706151,0,0,1.0801956,241.14371,22.46831)"
             d="M 499.7572,160.39497 472.19568,112.657 444.63415,64.919038 l 55.12305,-10e-7 55.12305,-2e-6 -27.56152,47.737965 z" />
          <path
             style="opacity:1;fill:#294371;fill-opacity:1;stroke:none;stroke-width:0;stroke-linecap:round;stroke-miterlimit:4;stroke-dasharray:none;stroke-opacity:1"
             id="path1845-3-1"
             transform="matrix(-0.90706151,0,0,-1.0801956,1197.7648,265.8515)"
             d="M 499.7572,160.39497 472.19568,112.657 444.63415,64.919038 l 55.12305,-10e-7 55.12305,-2e-6 -27.56152,47.737965 z" />
          <path
             style="opacity:1;fill:#31567a;fill-opacity:1;stroke:none;stroke-width:0;stroke-linecap:round;stroke-miterlimit:4;stroke-dasharray:none"
             id="path1845-3-9"
             transform="matrix(0.90706151,0,0,1.0801956,291.14374,125.60099)"
             d="M 499.7572,160.39497 472.19568,112.657 444.63415,64.919038 l 55.12305,-10e-7 55.12305,-2e-6 -27.56152,47.737965 z" />
          <path
             style="opacity:1;fill:#386883;fill-opacity:1;stroke:none;stroke-width:0;stroke-linecap:round;stroke-miterlimit:4;stroke-dasharray:none;stroke-opacity:1"
             id="path1845-3-1-4"
             transform="matrix(-0.90706151,0,0,-1.0801956,1247.7648,368.98418)"
             d="M 499.7572,160.39497 472.19568,112.657 444.63415,64.919038 l 55.12305,-10e-7 55.12305,-2e-6 -27.56152,47.737965 z" />
          <path
             style="opacity:1;fill:#407b8d;fill-opacity:1;stroke:none;stroke-width:0;stroke-linecap:round;stroke-miterlimit:4;stroke-dasharray:none"
             id="path1845-3-7"
             transform="matrix(0.90706151,0,0,1.0801956,341.14373,228.73366)"
             d="M 499.7572,160.39497 472.19568,112.657 444.63415,64.919038 l 55.12305,-10e-7 55.12305,-2e-6 -27.56152,47.737965 z" />
          <path
             style="opacity:1;fill:#4fa09f;fill-opacity:1;stroke:none;stroke-width:0;stroke-linecap:round;stroke-miterlimit:4;stroke-dasharray:none;stroke-opacity:1"
             id="path1845-3-1-8"
             transform="matrix(-0.90706151,0,0,-1.0801956,1297.7648,472.11685)"
             d="M 499.7572,160.39497 472.19568,112.657 444.63415,64.919038 l 55.12305,-10e-7 55.12305,-2e-6 -27.56152,47.737965 z" />
          <path
             style="opacity:1;fill:#478e96;fill-opacity:1;stroke:none;stroke-width:0;stroke-linecap:round;stroke-miterlimit:4;stroke-dasharray:none"
             id="path1845-3-4"
             transform="matrix(0.90706151,0,0,1.0801956,391.14373,331.86633)"
             d="M 499.7572,160.39497 472.19568,112.657 444.63415,64.919038 l 55.12305,-10e-7 55.12305,-2e-6 -27.56152,47.737965 z" />
          <path
             style="opacity:1;fill:#56b3a9;fill-opacity:1;stroke:none;stroke-width:0;stroke-linecap:round;stroke-miterlimit:4;stroke-dasharray:none"
             id="path1845-3-4-5"
             transform="matrix(0.90706151,0,0,1.0801956,441.14372,228.73365)"
             d="M 499.7572,160.39497 472.19568,112.657 444.63415,64.919038 l 55.12305,-10e-7 55.12305,-2e-6 -27.56152,47.737965 z" />
          <path
             style="opacity:1;fill:#5ec5b2;fill-opacity:1;stroke:none;stroke-width:0;stroke-linecap:round;stroke-miterlimit:4;stroke-dasharray:none;stroke-opacity:1"
             id="path1845-3-1-8-0"
             transform="matrix(-0.90706151,0,0,-1.0801956,1347.7648,368.98417)"
             d="M 499.7572,160.39497 472.19568,112.657 444.63415,64.919038 l 55.12305,-10e-7 55.12305,-2e-6 -27.56152,47.737965 z" />
          <path
             style="opacity:1;fill:#65d8bb;fill-opacity:1;stroke:none;stroke-width:0;stroke-linecap:round;stroke-miterlimit:4;stroke-dasharray:none"
             id="path1845-3-4-5-3"
             transform="matrix(0.90706151,0,0,1.0801956,491.14372,125.60097)"
             d="M 499.7572,160.39497 472.19568,112.657 444.63415,64.919038 l 55.12305,-10e-7 55.12305,-2e-6 -27.56152,47.737965 z" />
          <path
             style="opacity:1;fill:#6debc5;fill-opacity:1;stroke:none;stroke-width:0;stroke-linecap:round;stroke-miterlimit:4;stroke-dasharray:none;stroke-opacity:1"
             id="path1845-3-1-8-6"
             transform="matrix(-0.90706151,0,0,-1.0801956,1397.7648,265.85149)"
             d="M 499.7572,160.39497 472.19568,112.657 444.63415,64.919038 l 55.12305,-10e-7 55.12305,-2e-6 -27.56152,47.737965 z" />
          <path
             style="opacity:1;fill:#74fdce;fill-opacity:1;stroke:none;stroke-width:0;stroke-linecap:round;stroke-miterlimit:4;stroke-dasharray:none"
             id="path1845-3-4-5-1"
             transform="matrix(0.90706151,0,0,1.0801956,541.14372,22.46829)"
             d="M 499.7572,160.39497 472.19568,112.657 444.63415,64.919038 l 55.12305,-10e-7 55.12305,-2e-6 -27.56152,47.737965 z" />
        </g>
      </g>
    </g>
    <rect
       style="fill:none;stroke-width:0.154575;stroke-linecap:round;stroke:none"
       id="rect2533"
       width="169.33333"
       height="169.33333"
       x="-557.70142"
       y="-411.00311" />
  </g>
</svg>
