<?xml version="1.0" encoding="UTF-8" standalone="no"?>
<svg
   xmlns:dc="http://purl.org/dc/elements/1.1/"
   xmlns:cc="http://creativecommons.org/ns#"
   xmlns:rdf="http://www.w3.org/1999/02/22-rdf-syntax-ns#"
   xmlns:svg="http://www.w3.org/2000/svg"
   xmlns="http://www.w3.org/2000/svg"
   xmlns:xlink="http://www.w3.org/1999/xlink"
   xmlns:sodipodi="http://sodipodi.sourceforge.net/DTD/sodipodi-0.dtd"
   xmlns:inkscape="http://www.inkscape.org/namespaces/inkscape"
   width="640"
   height="640"
   viewBox="0 0 169.33333 169.33332"
   version="1.1"
   id="svg8"
   inkscape:version="1.0.2 (e86c870879, 2021-01-15)"
   sodipodi:docname="Vision2033_Wortbildmarke_farbig_geschützt_leer.svg">
  <defs
     id="defs2">
    <linearGradient
       xlink:href="#linearGradient1125"
       id="linearGradient1127"
       x1="-683.55151"
       y1="666.0354"
       x2="-950.2287"
       y2="100.21283"
       gradientUnits="userSpaceOnUse"
       gradientTransform="translate(1044.955,-103.99029)" />
    <linearGradient
       id="linearGradient1125">
      <stop
         style="stop-color:#478e96;stop-opacity:1"
         offset="0"
         id="stop1121" />
      <stop
         style="stop-color:#223168;stop-opacity:1"
         offset="1"
         id="stop1123" />
    </linearGradient>
    <linearGradient
       xlink:href="#linearGradient1117"
       id="linearGradient1119"
       x1="-450.80478"
       y1="544.36218"
       x2="-165.49663"
       y2="-0.84750015"
       gradientUnits="userSpaceOnUse"
       gradientTransform="translate(725.78048,1.3437493)" />
    <linearGradient
       id="linearGradient1117">
      <stop
         style="stop-color:#478e96;stop-opacity:1"
         offset="0"
         id="stop1113" />
      <stop
         style="stop-color:#74fdce;stop-opacity:1"
         offset="1"
         id="stop1115" />
    </linearGradient>
    <linearGradient
       xlink:href="#linearGradient1125"
       id="linearGradient1127-6"
       x1="-683.55151"
       y1="666.0354"
       x2="-950.2287"
       y2="100.21283"
       gradientUnits="userSpaceOnUse"
       gradientTransform="translate(1044.955,-103.99029)" />
    <linearGradient
       xlink:href="#linearGradient1117"
       id="linearGradient1119-3"
       x1="-450.80478"
       y1="544.36218"
       x2="-165.49663"
       y2="-0.84750015"
       gradientUnits="userSpaceOnUse"
       gradientTransform="translate(725.78048,1.3437493)" />
  </defs>
  <sodipodi:namedview
     id="base"
     pagecolor="#ffffff"
     bordercolor="#666666"
     borderopacity="1.0"
     inkscape:pageopacity="0.0"
     inkscape:pageshadow="2"
     inkscape:zoom="0.12374369"
     inkscape:cx="2714.3668"
     inkscape:cy="1028.3252"
     inkscape:document-units="mm"
     inkscape:current-layer="layer1"
     inkscape:document-rotation="0"
     showgrid="false"
     fit-margin-top="0"
     fit-margin-left="0"
     fit-margin-right="0"
     fit-margin-bottom="0"
     inkscape:window-width="1362"
     inkscape:window-height="724"
     inkscape:window-x="0"
     inkscape:window-y="20"
     inkscape:window-maximized="1"
     units="px" />
  <metadata
     id="metadata5">
    <rdf:RDF>
      <cc:Work
         rdf:about="">
        <dc:format>image/svg+xml</dc:format>
        <dc:type
           rdf:resource="http://purl.org/dc/dcmitype/StillImage" />
        <dc:title></dc:title>
      </cc:Work>
    </rdf:RDF>
  </metadata>
  <g
     inkscape:label="Layer 1"
     inkscape:groupmode="layer"
     id="layer1"
     transform="translate(557.70142,411.00311)">
    <g
       id="g2531"
       transform="matrix(0.52788192,0,0,0.52788192,-468.53703,-362.09165)">
      <g
         id="layer1-3"
         transform="matrix(1.8943596,0,0,1.8943596,270.04411,421.01042)">
        <text
           xml:space="preserve"
           style="font-weight:500;font-size:26.9265px;line-height:1.25;font-family:'Fira Sans';-inkscape-font-specification:'Fira Sans Medium';letter-spacing:0px;word-spacing:0px;fill:#223168;fill-opacity:1;stroke:none;stroke-width:0.78676"
           x="-214.45973"
           y="-154.79956"
           id="text935-6"><tspan
             x="-214.45973"
             y="-154.79956"
             id="tspan937-0"
             style="font-style:normal;font-variant:normal;font-weight:bold;font-stretch:normal;font-size:26.9265px;font-family:'Playfair Display';-inkscape-font-specification:'Playfair Display Bold';fill:#223168;fill-opacity:1;stroke:none;stroke-width:0.78676">Vision2033</tspan></text>
      </g>
      <g
         id="g841"
         transform="matrix(0.31843486,0,0,0.31843486,-46.732507,2.13781e-7)">
        <g
           id="g1176"
           transform="matrix(0.375,0,0,0.375,-1.85347e-6,6.7134923e-7)">
          <path
             id="path1845-3-6-0"
             style="fill:url(#linearGradient1127);fill-opacity:1;stroke:none;stroke-width:0;stroke-linecap:round;stroke-miterlimit:4;stroke-dasharray:none"
             d="M 9.7203913,-2.3539814e-7 48.505541,80 l 38.78516,80 38.783199,80 38.78516,80 38.78515,80 38.78516,80 38.78515,80 38.78516,80 38.78516,-80 L 397.57,480 358.78484,400 319.99968,320 281.21452,240 242.42937,160 203.64421,80 164.85906,-2.3539808e-7 H 87.290701 Z" />
          <path
             id="path1845-3-1-8-62-2"
             style="fill:url(#linearGradient1119);fill-opacity:1;stroke:none;stroke-width:0;stroke-linecap:round;stroke-miterlimit:4;stroke-dasharray:none;stroke-opacity:1"
             d="M 475.13963,-3.5805292e-6 436.35448,79.999996 397.56932,160 l -38.78515,80 -38.78516,80 -38.78516,80 -38.78515,80 38.78515,80 38.78516,80 38.78516,-80 38.78515,-80 38.78516,-80 38.78515,-80 38.78516,-80 38.78516,-80 h -0.002 L 513.92475,79.999996 552.70991,160 591.49311,79.999996 630.27827,-3.5805292e-6 h -77.56836 z" />
          <g
             id="g2870"
             transform="matrix(1.5513996,0,0,1.5513996,-990.08596,-143.64959)">
            <path
               style="opacity:1;fill:#223168;fill-opacity:1;stroke:none;stroke-width:0;stroke-linecap:round;stroke-miterlimit:4;stroke-dasharray:none"
               id="path1845-3"
               transform="matrix(0.90706151,0,0,1.0801956,241.14371,22.46831)"
               d="M 499.7572,160.39497 472.19568,112.657 444.63415,64.919038 l 55.12305,-10e-7 55.12305,-2e-6 -27.56152,47.737965 z" />
            <path
               style="opacity:1;fill:#294371;fill-opacity:1;stroke:none;stroke-width:0;stroke-linecap:round;stroke-miterlimit:4;stroke-dasharray:none;stroke-opacity:1"
               id="path1845-3-1"
               transform="matrix(-0.90706151,0,0,-1.0801956,1197.7648,265.8515)"
               d="M 499.7572,160.39497 472.19568,112.657 444.63415,64.919038 l 55.12305,-10e-7 55.12305,-2e-6 -27.56152,47.737965 z" />
            <path
               style="opacity:1;fill:#31567a;fill-opacity:1;stroke:none;stroke-width:0;stroke-linecap:round;stroke-miterlimit:4;stroke-dasharray:none"
               id="path1845-3-9"
               transform="matrix(0.90706151,0,0,1.0801956,291.14374,125.60099)"
               d="M 499.7572,160.39497 472.19568,112.657 444.63415,64.919038 l 55.12305,-10e-7 55.12305,-2e-6 -27.56152,47.737965 z" />
            <path
               style="opacity:1;fill:#386883;fill-opacity:1;stroke:none;stroke-width:0;stroke-linecap:round;stroke-miterlimit:4;stroke-dasharray:none;stroke-opacity:1"
               id="path1845-3-1-4"
               transform="matrix(-0.90706151,0,0,-1.0801956,1247.7648,368.98418)"
               d="M 499.7572,160.39497 472.19568,112.657 444.63415,64.919038 l 55.12305,-10e-7 55.12305,-2e-6 -27.56152,47.737965 z" />
            <path
               style="opacity:1;fill:#407b8d;fill-opacity:1;stroke:none;stroke-width:0;stroke-linecap:round;stroke-miterlimit:4;stroke-dasharray:none"
               id="path1845-3-7"
               transform="matrix(0.90706151,0,0,1.0801956,341.14373,228.73366)"
               d="M 499.7572,160.39497 472.19568,112.657 444.63415,64.919038 l 55.12305,-10e-7 55.12305,-2e-6 -27.56152,47.737965 z" />
            <path
               style="opacity:1;fill:#4fa09f;fill-opacity:1;stroke:none;stroke-width:0;stroke-linecap:round;stroke-miterlimit:4;stroke-dasharray:none;stroke-opacity:1"
               id="path1845-3-1-8"
               transform="matrix(-0.90706151,0,0,-1.0801956,1297.7648,472.11685)"
               d="M 499.7572,160.39497 472.19568,112.657 444.63415,64.919038 l 55.12305,-10e-7 55.12305,-2e-6 -27.56152,47.737965 z" />
            <path
               style="opacity:1;fill:#478e96;fill-opacity:1;stroke:none;stroke-width:0;stroke-linecap:round;stroke-miterlimit:4;stroke-dasharray:none"
               id="path1845-3-4"
               transform="matrix(0.90706151,0,0,1.0801956,391.14373,331.86633)"
               d="M 499.7572,160.39497 472.19568,112.657 444.63415,64.919038 l 55.12305,-10e-7 55.12305,-2e-6 -27.56152,47.737965 z" />
            <path
               style="opacity:1;fill:#56b3a9;fill-opacity:1;stroke:none;stroke-width:0;stroke-linecap:round;stroke-miterlimit:4;stroke-dasharray:none"
               id="path1845-3-4-5"
               transform="matrix(0.90706151,0,0,1.0801956,441.14372,228.73365)"
               d="M 499.7572,160.39497 472.19568,112.657 444.63415,64.919038 l 55.12305,-10e-7 55.12305,-2e-6 -27.56152,47.737965 z" />
            <path
               style="opacity:1;fill:#5ec5b2;fill-opacity:1;stroke:none;stroke-width:0;stroke-linecap:round;stroke-miterlimit:4;stroke-dasharray:none;stroke-opacity:1"
               id="path1845-3-1-8-0"
               transform="matrix(-0.90706151,0,0,-1.0801956,1347.7648,368.98417)"
               d="M 499.7572,160.39497 472.19568,112.657 444.63415,64.919038 l 55.12305,-10e-7 55.12305,-2e-6 -27.56152,47.737965 z" />
            <path
               style="opacity:1;fill:#65d8bb;fill-opacity:1;stroke:none;stroke-width:0;stroke-linecap:round;stroke-miterlimit:4;stroke-dasharray:none"
               id="path1845-3-4-5-3"
               transform="matrix(0.90706151,0,0,1.0801956,491.14372,125.60097)"
               d="M 499.7572,160.39497 472.19568,112.657 444.63415,64.919038 l 55.12305,-10e-7 55.12305,-2e-6 -27.56152,47.737965 z" />
            <path
               style="opacity:1;fill:#6debc5;fill-opacity:1;stroke:none;stroke-width:0;stroke-linecap:round;stroke-miterlimit:4;stroke-dasharray:none;stroke-opacity:1"
               id="path1845-3-1-8-6"
               transform="matrix(-0.90706151,0,0,-1.0801956,1397.7648,265.85149)"
               d="M 499.7572,160.39497 472.19568,112.657 444.63415,64.919038 l 55.12305,-10e-7 55.12305,-2e-6 -27.56152,47.737965 z" />
            <path
               style="opacity:1;fill:#74fdce;fill-opacity:1;stroke:none;stroke-width:0;stroke-linecap:round;stroke-miterlimit:4;stroke-dasharray:none"
               id="path1845-3-4-5-1"
               transform="matrix(0.90706151,0,0,1.0801956,541.14372,22.46829)"
               d="M 499.7572,160.39497 472.19568,112.657 444.63415,64.919038 l 55.12305,-10e-7 55.12305,-2e-6 -27.56152,47.737965 z" />
          </g>
        </g>
      </g>
    </g>
    <rect
       style="fill:none;stroke-width:0.154575;stroke-linecap:round;stroke:none"
       id="rect2533"
       width="169.33333"
       height="169.33333"
       x="-557.70142"
       y="-411.00311" />
  </g>
</svg>
